<?xml version="1.0" encoding="UTF-8" standalone="no"?>
<svg
   xmlns:dc="http://purl.org/dc/elements/1.1/"
   xmlns:cc="http://creativecommons.org/ns#"
   xmlns:rdf="http://www.w3.org/1999/02/22-rdf-syntax-ns#"
   xmlns:svg="http://www.w3.org/2000/svg"
   xmlns="http://www.w3.org/2000/svg"
   xmlns:sodipodi="http://sodipodi.sourceforge.net/DTD/sodipodi-0.dtd"
   xmlns:inkscape="http://www.inkscape.org/namespaces/inkscape"
   width="210mm"
   height="297mm"
   viewBox="0 0 210 297"
   version="1.1"
   id="svg8"
   sodipodi:docname="Arduino box.svg"
   inkscape:version="1.0.1 (3bc2e813f5, 2020-09-07)">
  <defs
     id="defs2" />
  <sodipodi:namedview
     id="base"
     pagecolor="#ffffff"
     bordercolor="#666666"
     borderopacity="1.0"
     inkscape:pageopacity="0.0"
     inkscape:pageshadow="2"
     inkscape:zoom="1.307385"
     inkscape:cx="322.00474"
     inkscape:cy="351.92807"
     inkscape:document-units="mm"
     inkscape:current-layer="layer1"
     inkscape:document-rotation="0"
     showgrid="false"
     inkscape:window-width="1920"
     inkscape:window-height="1013"
     inkscape:window-x="-9"
     inkscape:window-y="-9"
     inkscape:window-maximized="1" />
  <metadata
     id="metadata5">
    <rdf:RDF>
      <cc:Work
         rdf:about="">
        <dc:format>image/svg+xml</dc:format>
        <dc:type
           rdf:resource="http://purl.org/dc/dcmitype/StillImage" />
        <dc:title />
      </cc:Work>
    </rdf:RDF>
  </metadata>
  <g
     inkscape:label="Layer 1"
     inkscape:groupmode="layer"
     id="layer1">
    <g
       id="panel9413"
       transform="translate(16.190079,19.832847)">
      <path
         style="fill:none;stroke:#000000;stroke-width:1"
         d="m 4.2,41.6 h 8.7883 v -3.2 h 12.4234 v 3.2 H 34.2"
         id="path8821" />
      <path
         style="fill:none;stroke:#000000;stroke-width:1"
         d="m 34.2,41.6 v 8.9979 h 3.2 v 12.6328 h -3.2 v 12.0529 h 3.2 v 12.6328 h -3.2 v 12.0529 h 3.2 v 12.6327 h -3.2 v 8.998"
         id="path8823" />
      <path
         style="fill:none;stroke:#000000;stroke-width:1"
         d="m 34.2,121.6 h -8.7883 v 3.2 H 12.9883 v -3.2 H 4.2"
         id="path8825" />
      <path
         style="fill:none;stroke:#000000;stroke-width:1"
         d="m 4.2,121.6 v -8.998 0 -12.6327 0 -12.0529 0 -12.6328 0 -12.0529 0 -12.6328 0 V 41.6"
         id="path8827" />
    </g>
    <path
       style="fill:none;stroke:#000000;stroke-width:1"
       d="m 54.590079,58.232847 h 12.425 v 3.2 h 11.99 v -3.2 h 12.57 v 3.2 h 11.990001 v -3.2 h 15.07083"
       id="path8830"
       sodipodi:nodetypes="cccccccccc" />
    <path
       style="fill:none;stroke:#000000;stroke-width:1"
       d="m 118.63591,58.232847 v 12.4879 h -3.2 v 12.0528 h 3.2 v 12.6329 h -3.2 v 12.052803 h 3.2 v 12.6326 h -3.2 v 12.053 h 3.2 v 12.488"
       id="path8832"
       sodipodi:nodetypes="cccccccccccccc" />
    <path
       style="fill:none;stroke:#000000;stroke-width:1"
       d="m 118.63591,144.63285 h -15.07083 v -3.2 H 91.575079 v 3.2 h -12.57 v -3.2 h -11.99 v 3.2 h -12.425"
       id="path8834"
       sodipodi:nodetypes="cccccccccc" />
    <path
       style="fill:none;stroke:#000000;stroke-width:1"
       d="m 54.590079,144.63285 v -12.488 h 3.2 v -12.053 h -3.2 v -12.6326 h 3.2 V 95.406447 h -3.2 v -12.6329 h 3.2 v -12.0528 h -3.2 v -12.4879"
       id="path8836" />
    <g
       id="panel8977"
       transform="translate(27.065788,20.548354)">
      <path
         style="fill:none;stroke:#000000;stroke-width:1"
         d="m 104,41.6 h 8.788 v -3.2 h 12.424 v 3.2 H 134"
         id="path8839" />
      <path
         style="fill:none;stroke:#000000;stroke-width:1"
         d="m 134,41.6 v 8.9979 0 12.6328 0 12.0529 0 12.6328 0 12.0529 0 12.6327 0 8.998"
         id="path8841" />
      <path
         style="fill:none;stroke:#000000;stroke-width:1"
         d="m 134,121.6 h -8.788 v 3.2 h -12.424 v -3.2 H 104"
         id="path8843" />
      <path
         style="fill:none;stroke:#000000;stroke-width:1"
         d="m 104,121.6 v -8.998 h -3.2 V 99.9693 H 104 V 87.9164 h -3.2 V 75.2836 H 104 V 63.2307 h -3.2 V 50.5979 H 104 V 41.6"
         id="path8845" />
    </g>
    <path
       style="fill:none;stroke:#000000;stroke-width:1"
       d="m 119.44541,183.22554 h -14.78083 v 0 H 92.094583 v 0 h -11.99 v 0 h -12.57 v 0 h -12.135"
       id="path8848"
       sodipodi:nodetypes="cccccccccc" />
    <path
       style="fill:none;stroke:#000000;stroke-width:1"
       d="m 55.399583,183.22554 v -11.19496 h 3.2 v -11.8434 h -3.2 v -9.0783"
       id="path8850"
       sodipodi:nodetypes="cccccc" />
    <path
       style="fill:none;stroke:#000000;stroke-width:1"
       d="m 55.399583,151.10888 h 12.135 v -3.2 h 12.57 v 3.2 h 11.99 v -3.2 h 12.569997 v 3.2 h 14.78083"
       id="path8852"
       sodipodi:nodetypes="cccccccccc" />
    <path
       style="fill:none;stroke:#000000;stroke-width:1"
       d="m 119.44541,151.10888 v 9.0783 h -3.2 v 11.8434 h 3.2 v 11.19496"
       id="path8854"
       sodipodi:nodetypes="cccccc" />
    <rect
       style="fill:none;stroke:#000000;stroke-width:1;stroke-linecap:round;stroke-linejoin:round;stroke-miterlimit:4;stroke-dasharray:none;stroke-opacity:1"
       id="rect8894"
       width="29.889469"
       height="3.0894699"
       x="72.47776"
       y="176.20584" />
    <path
       id="rect855"
       style="fill:none;stroke:#000000;stroke-width:1;stroke-linecap:round;stroke-linejoin:round;stroke-miterlimit:4;stroke-dasharray:none;stroke-opacity:1"
       d="m 165.32262,62.780994 v 90.667326 c -2.34716,0.53 -4.09123,2.61595 -4.09123,5.12785 v 3.84473 c 0,2.91502 2.34668,5.26221 5.2617,5.26221 h 26.51104 c 2.91502,0 5.26169,-2.34719 5.26169,-5.26221 v -3.84473 c 0,-2.51172 -1.74379,-4.59767 -4.0907,-5.12785 V 62.780994 Z" />
    <rect
       style="fill:#00ffff;fill-opacity:1;stroke:none;stroke-width:0.888733;stroke-linecap:round;stroke-linejoin:round;stroke-miterlimit:4;stroke-dasharray:none;stroke-opacity:1"
       id="rect864"
       width="54"
       height="14.118549"
       x="59.439262"
       y="153.34172" />
    <rect
       style="fill:#00ffff;fill-opacity:1;stroke:none;stroke-width:1.15941;stroke-linecap:round;stroke-linejoin:round;stroke-miterlimit:4;stroke-dasharray:none;stroke-opacity:1"
       id="rect866"
       width="54"
       height="75"
       x="58.284286"
       y="65.305336" />
    <path
       style="fill:none;stroke:#000000;stroke-width:1"
       d="m 54.705815,19.938457 12.134991,0.01492 v 0 l 12.569985,0.01546 v 0 l 11.989991,0.01475 v 0 l 12.569988,0.01546 v 0 l 14.78082,0.01492"
       id="path873"
       sodipodi:nodetypes="cccccccccc" />
    <path
       style="fill:none;stroke:#000000;stroke-width:1"
       d="m 118.75159,20.013966 -0.0138,11.194952 -3.2,-0.0039 -0.0146,11.843391 3.2,0.0039 -0.0112,9.078293"
       id="path875"
       sodipodi:nodetypes="cccccc" />
    <path
       style="fill:none;stroke:#000000;stroke-width:1"
       d="m 118.7121,52.130602 -14.78082,-0.01492 -0.004,3.199998 -12.569991,-0.01546 0.0039,-3.199997 -11.989991,-0.01475 -0.0039,3.199998 -12.569984,-0.01546 0.0039,-3.199998 -12.134991,-0.01492"
       id="path877"
       sodipodi:nodetypes="cccccccccc" />
    <path
       style="fill:none;stroke:#000000;stroke-width:1"
       d="m 54.666318,52.055092 0.01117,-9.078293 3.199997,0.0039 0.01457,-11.843391 -3.199997,-0.0039 0.01377,-11.194951"
       id="path879"
       sodipodi:nodetypes="cccccc" />
    <rect
       style="fill:none;stroke:#000000;stroke-width:1;stroke-linecap:round;stroke-linejoin:round;stroke-miterlimit:4;stroke-dasharray:none;stroke-opacity:1"
       id="rect881"
       width="29.889469"
       height="3.0894699"
       x="-101.68426"
       y="-26.890257"
       transform="rotate(-179.92954)" />
    <rect
       style="fill:#00ffff;fill-opacity:1;stroke:none;stroke-width:0.888733;stroke-linecap:round;stroke-linejoin:round;stroke-miterlimit:4;stroke-dasharray:none;stroke-opacity:1"
       id="rect883"
       width="54"
       height="14.118549"
       x="-113.5211"
       y="-49.323914"
       transform="rotate(-179.92954)" />
    <rect
       style="fill:none;fill-opacity:1;stroke:#000000;stroke-width:1;stroke-linecap:round;stroke-linejoin:round;stroke-miterlimit:4;stroke-dasharray:none;stroke-opacity:1"
       id="rect893"
       width="12"
       height="10"
       x="69.439262"
       y="153.34172" />
    <rect
       style="fill:none;fill-opacity:1;stroke:#000000;stroke-width:1;stroke-linecap:round;stroke-linejoin:round;stroke-miterlimit:4;stroke-dasharray:none;stroke-opacity:1"
       id="rect897"
       width="9"
       height="10"
       x="100.43927"
       y="153.34172" />
  </g>
</svg>
